<?xml version="1.0" standalone="no"?><!-- Generator: Gravit.io --><svg xmlns="http://www.w3.org/2000/svg" xmlns:xlink="http://www.w3.org/1999/xlink" style="isolation:isolate" viewBox="545.161 424.021 327.276 38.558" width="327.276" height="38.558"><path d=" M 697.411 446.423 L 692.161 446.423 L 692.161 428.048 L 697.411 428.048 L 697.411 430.673 L 700.036 430.673 L 700.036 433.298 L 702.661 433.298 L 702.661 430.673 L 705.286 430.673 L 705.286 428.048 L 710.536 428.048 L 710.536 446.423 L 705.286 446.423 L 705.286 435.923 L 702.661 435.923 L 702.661 441.173 L 700.036 441.173 L 700.036 435.923 L 697.411 435.923 L 697.411 446.423 L 697.411 446.423 Z  M 728.911 446.423 L 715.786 446.423 L 715.786 443.798 L 713.161 443.798 L 713.161 435.923 L 715.786 435.923 L 715.786 433.298 L 728.911 433.298 L 728.911 435.923 L 731.536 435.923 L 731.536 441.173 L 718.411 441.173 L 718.411 443.798 L 728.911 443.798 L 728.911 446.423 L 728.911 446.423 Z  M 718.411 435.923 L 718.411 438.548 L 726.286 438.548 L 726.286 435.923 L 718.411 435.923 L 718.411 435.923 Z  M 747.286 446.423 L 742.036 446.423 L 742.036 435.923 L 736.786 435.923 L 736.786 433.298 L 742.036 433.298 L 742.036 428.048 L 747.286 428.048 L 747.286 433.298 L 752.536 433.298 L 752.536 435.923 L 747.286 435.923 L 747.286 446.423 L 747.286 446.423 Z  M 760.411 446.423 L 755.161 446.423 L 755.161 428.048 L 760.411 428.048 L 760.411 433.298 L 770.911 433.298 L 770.911 435.923 L 773.536 435.923 L 773.536 446.423 L 768.286 446.423 L 768.286 435.923 L 760.411 435.923 L 760.411 446.423 L 760.411 446.423 Z  M 791.911 446.423 L 778.786 446.423 L 778.786 443.798 L 776.161 443.798 L 776.161 435.923 L 778.786 435.923 L 778.786 433.298 L 791.911 433.298 L 791.911 435.923 L 794.536 435.923 L 794.536 441.173 L 781.411 441.173 L 781.411 443.798 L 791.911 443.798 L 791.911 446.423 L 791.911 446.423 Z  M 781.411 435.923 L 781.411 438.548 L 789.286 438.548 L 789.286 435.923 L 781.411 435.923 L 781.411 435.923 Z  M 802.411 446.423 L 797.161 446.423 L 797.161 433.298 L 812.911 433.298 L 812.911 435.923 L 815.536 435.923 L 815.536 446.423 L 810.286 446.423 L 810.286 435.923 L 802.411 435.923 L 802.411 446.423 L 802.411 446.423 Z  M 833.911 449.048 L 820.786 449.048 L 820.786 446.423 L 831.286 446.423 L 831.286 443.798 L 820.786 443.798 L 820.786 441.173 L 818.161 441.173 L 818.161 433.298 L 823.411 433.298 L 823.411 441.173 L 831.286 441.173 L 831.286 433.298 L 836.536 433.298 L 836.536 446.423 L 833.911 446.423 L 833.911 449.048 L 833.911 449.048 Z  M 563.536 446.423 L 550.411 446.423 L 550.411 443.798 L 547.786 443.798 L 547.786 441.173 L 545.161 441.173 L 545.161 433.298 L 547.786 433.298 L 547.786 430.673 L 550.411 430.673 L 550.411 428.048 L 563.536 428.048 L 563.536 430.673 L 553.036 430.673 L 553.036 433.298 L 550.411 433.298 L 550.411 441.173 L 553.036 441.173 L 553.036 443.798 L 558.286 443.798 L 558.286 438.548 L 555.661 438.548 L 555.661 435.923 L 563.536 435.923 L 563.536 446.423 L 563.536 446.423 Z  M 584.536 446.423 L 568.786 446.423 L 568.786 443.798 L 566.161 443.798 L 566.161 441.173 L 568.786 441.173 L 568.786 438.548 L 579.286 438.548 L 579.286 435.923 L 568.786 435.923 L 568.786 433.298 L 581.911 433.298 L 581.911 435.923 L 584.536 435.923 L 584.536 446.423 L 584.536 446.423 Z  M 571.411 441.173 L 571.411 443.798 L 579.286 443.798 L 579.286 441.173 L 571.411 441.173 L 571.411 441.173 Z  M 602.911 446.423 L 589.786 446.423 L 589.786 443.798 L 587.161 443.798 L 587.161 428.048 L 592.411 428.048 L 592.411 433.298 L 602.911 433.298 L 602.911 435.923 L 605.536 435.923 L 605.536 443.798 L 602.911 443.798 L 602.911 446.423 L 602.911 446.423 Z  M 592.411 435.923 L 592.411 443.798 L 600.286 443.798 L 600.286 435.923 L 592.411 435.923 L 592.411 435.923 Z  M 623.911 446.423 L 610.786 446.423 L 610.786 443.798 L 608.161 443.798 L 608.161 428.048 L 613.411 428.048 L 613.411 433.298 L 623.911 433.298 L 623.911 435.923 L 626.536 435.923 L 626.536 443.798 L 623.911 443.798 L 623.911 446.423 L 623.911 446.423 Z  M 613.411 435.923 L 613.411 443.798 L 621.286 443.798 L 621.286 435.923 L 613.411 435.923 L 613.411 435.923 Z  M 642.286 430.673 L 637.036 430.673 L 637.036 428.048 L 642.286 428.048 L 642.286 430.673 L 642.286 430.673 Z  M 647.536 446.423 L 631.786 446.423 L 631.786 443.798 L 637.036 443.798 L 637.036 435.923 L 634.411 435.923 L 634.411 433.298 L 642.286 433.298 L 642.286 443.798 L 647.536 443.798 L 647.536 446.423 L 647.536 446.423 Z  M 665.911 446.423 L 652.786 446.423 L 652.786 443.798 L 650.161 443.798 L 650.161 435.923 L 652.786 435.923 L 652.786 433.298 L 665.911 433.298 L 665.911 435.923 L 668.536 435.923 L 668.536 441.173 L 655.411 441.173 L 655.411 443.798 L 665.911 443.798 L 665.911 446.423 L 665.911 446.423 Z  M 655.411 435.923 L 655.411 438.548 L 663.286 438.548 L 663.286 435.923 L 655.411 435.923 L 655.411 435.923 Z " fill="rgb(249,78,109)"/><path d=" M 856.313 452.556 C 856.105 452.557 855.909 452.458 855.785 452.291 C 855.661 452.123 855.625 451.907 855.686 451.708 L 858.981 440.913 L 852.094 440.913 C 851.842 440.912 851.613 440.767 851.504 440.54 C 851.395 440.313 851.425 440.043 851.582 439.846 L 864.082 424.266 C 864.277 424.023 864.617 423.951 864.894 424.094 C 865.172 424.237 865.31 424.556 865.225 424.856 L 862.152 435.664 L 868.782 435.664 C 869.034 435.663 869.265 435.808 869.374 436.035 C 869.484 436.263 869.452 436.533 869.294 436.73 L 856.827 452.31 C 856.702 452.466 856.513 452.556 856.313 452.556 Z " fill="rgb(255,192,3)"/><line x1="547.161" y1="461.579" x2="871.439" y2="461.579" vector-effect="non-scaling-stroke" stroke-width="2" stroke="rgb(0,0,0)" stroke-linejoin="miter" stroke-linecap="square" stroke-miterlimit="3"/></svg>