<?xml version="1.0" standalone="no"?><!-- Generator: Gravit.io --><svg xmlns="http://www.w3.org/2000/svg" xmlns:xlink="http://www.w3.org/1999/xlink" style="isolation:isolate" viewBox="16.5 15.233 219 60" width="219" height="60"><path d=" M 199.472 60.527 L 198.96 60.175 L 199.736 58.919 L 198.512 58.375 L 198.696 57.807 L 199.992 58.151 L 200.088 56.727 L 200.712 56.727 L 200.808 58.151 L 202.104 57.807 L 202.288 58.375 L 201.064 58.919 L 201.84 60.175 L 201.328 60.527 L 200.4 59.391 L 199.472 60.527 Z  M 207.008 55.575 L 204.376 62.535 L 203.392 62.535 L 206.024 55.575 L 207.008 55.575 Z  M 48.608 55.575 L 45.976 62.535 L 44.992 62.535 L 47.624 55.575 L 48.608 55.575 Z  M 50.672 60.527 L 50.16 60.175 L 50.936 58.919 L 49.712 58.375 L 49.896 57.807 L 51.192 58.151 L 51.288 56.727 L 51.912 56.727 L 52.008 58.151 L 53.304 57.807 L 53.488 58.375 L 52.264 58.919 L 53.04 60.175 L 52.528 60.527 L 51.6 59.391 L 50.672 60.527 Z " fill-rule="evenodd" fill="rgb(116,116,116)"/><path d=" M 235.5 45.833 L 235.5 45.833 L 235.5 45.833 Q 234.24 45.953 233.25 46.463 L 233.25 46.463 L 233.25 46.463 Q 232.26 46.973 231.57 48.083 L 231.57 48.083 L 231.57 48.083 Q 230.88 49.193 230.49 51.053 L 230.49 51.053 L 230.49 51.053 Q 230.1 52.913 230.1 55.733 L 230.1 55.733 L 230.1 64.433 L 230.1 64.433 Q 230.1 69.893 227.61 72.563 L 227.61 72.563 L 227.61 72.563 Q 225.12 75.233 220.8 75.233 L 220.8 75.233 L 220.8 74.033 L 220.8 74.033 Q 221.7 74.033 222.42 73.673 L 222.42 73.673 L 222.42 73.673 Q 223.14 73.313 223.65 72.263 L 223.65 72.263 L 223.65 72.263 Q 224.16 71.213 224.43 69.353 L 224.43 69.353 L 224.43 69.353 Q 224.7 67.493 224.7 64.433 L 224.7 64.433 L 224.7 55.733 L 224.7 55.733 Q 224.7 52.073 225.9 49.943 L 225.9 49.943 L 225.9 49.943 Q 227.1 47.813 228.6 46.793 L 228.6 46.793 L 228.6 46.793 Q 230.28 45.593 232.5 45.233 L 232.5 45.233 L 232.5 45.233 Q 230.28 44.873 228.6 43.673 L 228.6 43.673 L 228.6 43.673 Q 227.1 42.653 225.9 40.553 L 225.9 40.553 L 225.9 40.553 Q 224.7 38.453 224.7 34.733 L 224.7 34.733 L 224.7 26.033 L 224.7 26.033 Q 224.7 22.973 224.43 21.113 L 224.43 21.113 L 224.43 21.113 Q 224.16 19.253 223.65 18.203 L 223.65 18.203 L 223.65 18.203 Q 223.14 17.153 222.42 16.793 L 222.42 16.793 L 222.42 16.793 Q 221.7 16.433 220.8 16.433 L 220.8 16.433 L 220.8 15.233 L 220.8 15.233 Q 225.12 15.233 227.61 17.903 L 227.61 17.903 L 227.61 17.903 Q 230.1 20.573 230.1 26.033 L 230.1 26.033 L 230.1 34.733 L 230.1 34.733 Q 230.1 37.553 230.49 39.413 L 230.49 39.413 L 230.49 39.413 Q 230.88 41.273 231.57 42.383 L 231.57 42.383 L 231.57 42.383 Q 232.26 43.493 233.25 44.003 L 233.25 44.003 L 233.25 44.003 Q 234.24 44.513 235.5 44.633 L 235.5 44.633 L 235.5 45.833 Z  M 16.5 45.833 L 16.5 44.633 L 16.5 44.633 Q 17.76 44.513 18.75 44.003 L 18.75 44.003 L 18.75 44.003 Q 19.74 43.493 20.43 42.383 L 20.43 42.383 L 20.43 42.383 Q 21.12 41.273 21.51 39.413 L 21.51 39.413 L 21.51 39.413 Q 21.9 37.553 21.9 34.733 L 21.9 34.733 L 21.9 26.033 L 21.9 26.033 Q 21.9 20.573 24.39 17.903 L 24.39 17.903 L 24.39 17.903 Q 26.88 15.233 31.2 15.233 L 31.2 15.233 L 31.2 16.433 L 31.2 16.433 Q 30.3 16.433 29.58 16.793 L 29.58 16.793 L 29.58 16.793 Q 28.86 17.153 28.35 18.203 L 28.35 18.203 L 28.35 18.203 Q 27.84 19.253 27.57 21.113 L 27.57 21.113 L 27.57 21.113 Q 27.3 22.973 27.3 26.033 L 27.3 26.033 L 27.3 34.733 L 27.3 34.733 Q 27.3 38.453 26.07 40.553 L 26.07 40.553 L 26.07 40.553 Q 24.84 42.653 23.4 43.673 L 23.4 43.673 L 23.4 43.673 Q 21.66 44.873 19.5 45.233 L 19.5 45.233 L 19.5 45.233 Q 21.66 45.593 23.4 46.793 L 23.4 46.793 L 23.4 46.793 Q 24.84 47.813 26.07 49.943 L 26.07 49.943 L 26.07 49.943 Q 27.3 52.073 27.3 55.733 L 27.3 55.733 L 27.3 64.433 L 27.3 64.433 Q 27.3 67.493 27.57 69.353 L 27.57 69.353 L 27.57 69.353 Q 27.84 71.213 28.35 72.263 L 28.35 72.263 L 28.35 72.263 Q 28.86 73.313 29.58 73.673 L 29.58 73.673 L 29.58 73.673 Q 30.3 74.033 31.2 74.033 L 31.2 74.033 L 31.2 75.233 L 31.2 75.233 Q 26.88 75.233 24.39 72.563 L 24.39 72.563 L 24.39 72.563 Q 21.9 69.893 21.9 64.433 L 21.9 64.433 L 21.9 55.733 L 21.9 55.733 Q 21.9 52.913 21.51 51.053 L 21.51 51.053 L 21.51 51.053 Q 21.12 49.193 20.43 48.083 L 20.43 48.083 L 20.43 48.083 Q 19.74 46.973 18.75 46.463 L 18.75 46.463 L 18.75 46.463 Q 17.76 45.953 16.5 45.833 L 16.5 45.833 Z " fill-rule="evenodd" fill="rgb(249,78,109)"/><path d=" M 151.146 61.833 L 151.146 56.037 L 153.495 56.037 L 153.495 56.037 Q 154.8 56.037 155.412 56.73 L 155.412 56.73 L 155.412 56.73 Q 156.024 57.423 156.024 58.971 L 156.024 58.971 L 156.024 58.971 Q 156.024 60.456 155.412 61.145 L 155.412 61.145 L 155.412 61.145 Q 154.8 61.833 153.495 61.833 L 153.495 61.833 L 151.146 61.833 Z  M 152.127 61.077 L 153.342 61.077 L 153.342 61.077 Q 153.945 61.077 154.31 60.902 L 154.31 60.902 L 154.31 60.902 Q 154.674 60.726 154.858 60.267 L 154.858 60.267 L 154.858 60.267 Q 155.043 59.808 155.043 58.971 L 155.043 58.971 L 155.043 58.971 Q 155.043 58.125 154.872 57.657 L 154.872 57.657 L 154.872 57.657 Q 154.701 57.189 154.336 56.996 L 154.336 56.996 L 154.336 56.996 Q 153.972 56.802 153.342 56.802 L 153.342 56.802 L 152.127 56.802 L 152.127 61.077 Z  M 159.147 61.923 L 159.147 61.923 Q 158.013 61.923 157.41 61.365 L 157.41 61.365 L 157.41 61.365 Q 156.807 60.807 156.807 59.691 L 156.807 59.691 L 156.807 59.691 Q 156.807 58.638 157.338 58.058 L 157.338 58.058 L 157.338 58.058 Q 157.869 57.477 158.913 57.477 L 158.913 57.477 L 158.913 57.477 Q 159.858 57.477 160.362 57.972 L 160.362 57.972 L 160.362 57.972 Q 160.866 58.467 160.866 59.295 L 160.866 59.295 L 160.866 60.087 L 157.743 60.087 L 157.743 60.087 Q 157.815 60.699 158.184 60.938 L 158.184 60.938 L 158.184 60.938 Q 158.553 61.176 159.345 61.176 L 159.345 61.176 L 159.345 61.176 Q 159.669 61.176 160.007 61.113 L 160.007 61.113 L 160.007 61.113 Q 160.344 61.05 160.605 60.951 L 160.605 60.951 L 160.605 61.671 L 160.605 61.671 Q 160.038 61.923 159.147 61.923 L 159.147 61.923 Z  M 157.743 59.448 L 160.002 59.448 L 160.002 59.151 L 160.002 59.151 Q 160.002 58.692 159.75 58.454 L 159.75 58.454 L 159.75 58.454 Q 159.498 58.215 158.94 58.215 L 158.94 58.215 L 158.94 58.215 Q 158.274 58.215 158.009 58.503 L 158.009 58.503 L 158.009 58.503 Q 157.743 58.791 157.743 59.448 L 157.743 59.448 Z  M 163.323 61.833 L 161.64 57.567 L 162.657 57.567 L 163.854 60.879 L 165.051 57.567 L 166.059 57.567 L 164.385 61.833 L 163.323 61.833 Z  M 169.182 61.923 L 169.182 61.923 Q 168.048 61.923 167.445 61.365 L 167.445 61.365 L 167.445 61.365 Q 166.842 60.807 166.842 59.691 L 166.842 59.691 L 166.842 59.691 Q 166.842 58.638 167.373 58.058 L 167.373 58.058 L 167.373 58.058 Q 167.904 57.477 168.948 57.477 L 168.948 57.477 L 168.948 57.477 Q 169.893 57.477 170.397 57.972 L 170.397 57.972 L 170.397 57.972 Q 170.901 58.467 170.901 59.295 L 170.901 59.295 L 170.901 60.087 L 167.778 60.087 L 167.778 60.087 Q 167.85 60.699 168.219 60.938 L 168.219 60.938 L 168.219 60.938 Q 168.588 61.176 169.38 61.176 L 169.38 61.176 L 169.38 61.176 Q 169.704 61.176 170.041 61.113 L 170.041 61.113 L 170.041 61.113 Q 170.379 61.05 170.64 60.951 L 170.64 60.951 L 170.64 61.671 L 170.64 61.671 Q 170.073 61.923 169.182 61.923 L 169.182 61.923 Z  M 167.778 59.448 L 170.037 59.448 L 170.037 59.151 L 170.037 59.151 Q 170.037 58.692 169.785 58.454 L 169.785 58.454 L 169.785 58.454 Q 169.533 58.215 168.975 58.215 L 168.975 58.215 L 168.975 58.215 Q 168.309 58.215 168.043 58.503 L 168.043 58.503 L 168.043 58.503 Q 167.778 58.791 167.778 59.448 L 167.778 59.448 Z  M 172.917 61.923 L 172.917 61.923 Q 172.377 61.923 172.116 61.662 L 172.116 61.662 L 172.116 61.662 Q 171.855 61.401 171.855 60.816 L 171.855 60.816 L 171.855 55.767 L 172.836 55.767 L 172.836 60.726 L 172.836 60.726 Q 172.836 60.969 172.922 61.064 L 172.922 61.064 L 172.922 61.064 Q 173.007 61.158 173.196 61.158 L 173.196 61.158 L 173.196 61.158 Q 173.412 61.158 173.61 61.104 L 173.61 61.104 L 173.61 61.815 L 173.61 61.815 Q 173.313 61.923 172.917 61.923 L 172.917 61.923 Z  M 176.418 61.923 L 176.418 61.923 Q 174.195 61.923 174.195 59.7 L 174.195 59.7 L 174.195 59.7 Q 174.195 57.477 176.418 57.477 L 176.418 57.477 L 176.418 57.477 Q 178.65 57.477 178.65 59.7 L 178.65 59.7 L 178.65 59.7 Q 178.65 61.923 176.418 61.923 L 176.418 61.923 Z  M 176.418 61.095 L 176.418 61.095 Q 177.093 61.095 177.377 60.771 L 177.377 60.771 L 177.377 60.771 Q 177.66 60.447 177.66 59.7 L 177.66 59.7 L 177.66 59.7 Q 177.66 58.962 177.377 58.638 L 177.377 58.638 L 177.377 58.638 Q 177.093 58.314 176.418 58.314 L 176.418 58.314 L 176.418 58.314 Q 175.752 58.314 175.468 58.638 L 175.468 58.638 L 175.468 58.638 Q 175.185 58.962 175.185 59.7 L 175.185 59.7 L 175.185 59.7 Q 175.185 60.447 175.468 60.771 L 175.468 60.771 L 175.468 60.771 Q 175.752 61.095 176.418 61.095 L 176.418 61.095 Z  M 179.604 63.777 L 179.604 57.567 L 180.45 57.567 L 180.504 57.99 L 180.504 57.99 Q 180.801 57.729 181.143 57.603 L 181.143 57.603 L 181.143 57.603 Q 181.485 57.477 181.944 57.477 L 181.944 57.477 L 181.944 57.477 Q 182.898 57.477 183.393 57.99 L 183.393 57.99 L 183.393 57.99 Q 183.888 58.503 183.888 59.628 L 183.888 59.628 L 183.888 59.628 Q 183.888 60.762 183.366 61.343 L 183.366 61.343 L 183.366 61.343 Q 182.844 61.923 181.908 61.923 L 181.908 61.923 L 181.908 61.923 Q 181.134 61.923 180.585 61.563 L 180.585 61.563 L 180.585 63.777 L 179.604 63.777 Z  M 181.656 61.185 L 181.656 61.185 Q 182.286 61.185 182.592 60.798 L 182.592 60.798 L 182.592 60.798 Q 182.898 60.411 182.898 59.619 L 182.898 59.619 L 182.898 59.619 Q 182.898 58.863 182.619 58.544 L 182.619 58.544 L 182.619 58.544 Q 182.34 58.224 181.683 58.224 L 181.683 58.224 L 181.683 58.224 Q 181.026 58.224 180.585 58.674 L 180.585 58.674 L 180.585 60.807 L 180.585 60.807 Q 181.017 61.185 181.656 61.185 L 181.656 61.185 Z  M 187.002 61.923 L 187.002 61.923 Q 185.868 61.923 185.265 61.365 L 185.265 61.365 L 185.265 61.365 Q 184.662 60.807 184.662 59.691 L 184.662 59.691 L 184.662 59.691 Q 184.662 58.638 185.193 58.058 L 185.193 58.058 L 185.193 58.058 Q 185.724 57.477 186.768 57.477 L 186.768 57.477 L 186.768 57.477 Q 187.713 57.477 188.217 57.972 L 188.217 57.972 L 188.217 57.972 Q 188.721 58.467 188.721 59.295 L 188.721 59.295 L 188.721 60.087 L 185.598 60.087 L 185.598 60.087 Q 185.67 60.699 186.039 60.938 L 186.039 60.938 L 186.039 60.938 Q 186.408 61.176 187.2 61.176 L 187.2 61.176 L 187.2 61.176 Q 187.524 61.176 187.862 61.113 L 187.862 61.113 L 187.862 61.113 Q 188.199 61.05 188.46 60.951 L 188.46 60.951 L 188.46 61.671 L 188.46 61.671 Q 187.893 61.923 187.002 61.923 L 187.002 61.923 Z  M 185.598 59.448 L 187.857 59.448 L 187.857 59.151 L 187.857 59.151 Q 187.857 58.692 187.605 58.454 L 187.605 58.454 L 187.605 58.454 Q 187.353 58.215 186.795 58.215 L 186.795 58.215 L 186.795 58.215 Q 186.129 58.215 185.864 58.503 L 185.864 58.503 L 185.864 58.503 Q 185.598 58.791 185.598 59.448 L 185.598 59.448 Z  M 189.675 61.833 L 189.675 57.567 L 190.575 57.567 L 190.629 58.062 L 190.629 58.062 Q 190.935 57.864 191.358 57.702 L 191.358 57.702 L 191.358 57.702 Q 191.781 57.54 192.195 57.477 L 192.195 57.477 L 192.195 58.224 L 192.195 58.224 Q 191.808 58.296 191.358 58.445 L 191.358 58.445 L 191.358 58.445 Q 190.908 58.593 190.656 58.755 L 190.656 58.755 L 190.656 61.833 L 189.675 61.833 Z  M 105.777 61.923 L 105.777 61.923 Q 105.039 61.923 104.517 61.716 L 104.517 61.716 L 104.517 60.888 L 104.517 60.888 Q 104.733 60.987 105.025 61.041 L 105.025 61.041 L 105.025 61.041 Q 105.318 61.095 105.606 61.095 L 105.606 61.095 L 105.606 61.095 Q 106.2 61.095 106.443 60.852 L 106.443 60.852 L 106.443 60.852 Q 106.686 60.609 106.686 60.051 L 106.686 60.051 L 106.686 56.037 L 107.667 56.037 L 107.667 60.213 L 107.667 60.213 Q 107.667 61.05 107.19 61.487 L 107.19 61.487 L 107.19 61.487 Q 106.713 61.923 105.777 61.923 L 105.777 61.923 Z  M 110.088 61.923 L 110.088 61.923 Q 109.44 61.923 109.008 61.586 L 109.008 61.586 L 109.008 61.586 Q 108.576 61.248 108.576 60.618 L 108.576 60.618 L 108.576 60.618 Q 108.576 59.988 109.004 59.624 L 109.004 59.624 L 109.004 59.624 Q 109.431 59.259 110.286 59.259 L 110.286 59.259 L 111.654 59.259 L 111.654 59.07 L 111.654 59.07 Q 111.654 58.755 111.56 58.58 L 111.56 58.58 L 111.56 58.58 Q 111.465 58.404 111.213 58.323 L 111.213 58.323 L 111.213 58.323 Q 110.961 58.242 110.493 58.242 L 110.493 58.242 L 110.493 58.242 Q 109.737 58.242 109.08 58.467 L 109.08 58.467 L 109.08 57.738 L 109.08 57.738 Q 109.386 57.621 109.8 57.549 L 109.8 57.549 L 109.8 57.549 Q 110.214 57.477 110.673 57.477 L 110.673 57.477 L 110.673 57.477 Q 111.627 57.477 112.108 57.864 L 112.108 57.864 L 112.108 57.864 Q 112.59 58.251 112.59 59.088 L 112.59 59.088 L 112.59 61.833 L 111.753 61.833 L 111.69 61.401 L 111.69 61.401 Q 111.42 61.662 111.033 61.793 L 111.033 61.793 L 111.033 61.793 Q 110.646 61.923 110.088 61.923 L 110.088 61.923 Z  M 110.349 61.221 L 110.349 61.221 Q 110.772 61.221 111.105 61.077 L 111.105 61.077 L 111.105 61.077 Q 111.438 60.933 111.654 60.672 L 111.654 60.672 L 111.654 59.925 L 110.304 59.925 L 110.304 59.925 Q 109.872 59.925 109.678 60.087 L 109.678 60.087 L 109.678 60.087 Q 109.485 60.249 109.485 60.6 L 109.485 60.6 L 109.485 60.6 Q 109.485 60.924 109.701 61.073 L 109.701 61.073 L 109.701 61.073 Q 109.917 61.221 110.349 61.221 L 110.349 61.221 Z  M 115.182 61.833 L 113.499 57.567 L 114.516 57.567 L 115.713 60.879 L 116.91 57.567 L 117.918 57.567 L 116.244 61.833 L 115.182 61.833 Z  M 120.213 61.923 L 120.213 61.923 Q 119.565 61.923 119.133 61.586 L 119.133 61.586 L 119.133 61.586 Q 118.701 61.248 118.701 60.618 L 118.701 60.618 L 118.701 60.618 Q 118.701 59.988 119.129 59.624 L 119.129 59.624 L 119.129 59.624 Q 119.556 59.259 120.411 59.259 L 120.411 59.259 L 121.779 59.259 L 121.779 59.07 L 121.779 59.07 Q 121.779 58.755 121.685 58.58 L 121.685 58.58 L 121.685 58.58 Q 121.59 58.404 121.338 58.323 L 121.338 58.323 L 121.338 58.323 Q 121.086 58.242 120.618 58.242 L 120.618 58.242 L 120.618 58.242 Q 119.862 58.242 119.205 58.467 L 119.205 58.467 L 119.205 57.738 L 119.205 57.738 Q 119.511 57.621 119.925 57.549 L 119.925 57.549 L 119.925 57.549 Q 120.339 57.477 120.798 57.477 L 120.798 57.477 L 120.798 57.477 Q 121.752 57.477 122.233 57.864 L 122.233 57.864 L 122.233 57.864 Q 122.715 58.251 122.715 59.088 L 122.715 59.088 L 122.715 61.833 L 121.878 61.833 L 121.815 61.401 L 121.815 61.401 Q 121.545 61.662 121.158 61.793 L 121.158 61.793 L 121.158 61.793 Q 120.771 61.923 120.213 61.923 L 120.213 61.923 Z  M 120.474 61.221 L 120.474 61.221 Q 120.897 61.221 121.23 61.077 L 121.23 61.077 L 121.23 61.077 Q 121.563 60.933 121.779 60.672 L 121.779 60.672 L 121.779 59.925 L 120.429 59.925 L 120.429 59.925 Q 119.997 59.925 119.803 60.087 L 119.803 60.087 L 119.803 60.087 Q 119.61 60.249 119.61 60.6 L 119.61 60.6 L 119.61 60.6 Q 119.61 60.924 119.826 61.073 L 119.826 61.073 L 119.826 61.073 Q 120.042 61.221 120.474 61.221 L 120.474 61.221 Z  M 125.559 61.923 L 125.559 61.923 Q 124.434 61.923 123.75 61.635 L 123.75 61.635 L 123.75 60.771 L 123.75 60.771 Q 124.587 61.095 125.469 61.095 L 125.469 61.095 L 125.469 61.095 Q 126.198 61.095 126.527 60.924 L 126.527 60.924 L 126.527 60.924 Q 126.855 60.753 126.855 60.285 L 126.855 60.285 L 126.855 60.285 Q 126.855 59.988 126.715 59.813 L 126.715 59.813 L 126.715 59.813 Q 126.576 59.637 126.261 59.511 L 126.261 59.511 L 126.261 59.511 Q 125.946 59.385 125.316 59.223 L 125.316 59.223 L 125.316 59.223 Q 124.38 58.98 124.002 58.607 L 124.002 58.607 L 124.002 58.607 Q 123.624 58.233 123.624 57.576 L 123.624 57.576 L 123.624 57.576 Q 123.624 56.802 124.191 56.375 L 124.191 56.375 L 124.191 56.375 Q 124.758 55.947 125.847 55.947 L 125.847 55.947 L 125.847 55.947 Q 126.324 55.947 126.77 56.015 L 126.77 56.015 L 126.77 56.015 Q 127.215 56.082 127.494 56.181 L 127.494 56.181 L 127.494 57.045 L 127.494 57.045 Q 126.81 56.784 125.982 56.784 L 125.982 56.784 L 125.982 56.784 Q 125.298 56.784 124.956 56.964 L 124.956 56.964 L 124.956 56.964 Q 124.614 57.144 124.614 57.576 L 124.614 57.576 L 124.614 57.576 Q 124.614 57.837 124.74 57.995 L 124.74 57.995 L 124.74 57.995 Q 124.866 58.152 125.159 58.274 L 125.159 58.274 L 125.159 58.274 Q 125.451 58.395 126.036 58.539 L 126.036 58.539 L 126.036 58.539 Q 127.053 58.8 127.449 59.214 L 127.449 59.214 L 127.449 59.214 Q 127.845 59.628 127.845 60.285 L 127.845 60.285 L 127.845 60.285 Q 127.845 61.059 127.265 61.491 L 127.265 61.491 L 127.265 61.491 Q 126.684 61.923 125.559 61.923 L 125.559 61.923 Z  M 130.896 61.923 L 130.896 61.923 Q 129.771 61.923 129.195 61.356 L 129.195 61.356 L 129.195 61.356 Q 128.619 60.789 128.619 59.7 L 128.619 59.7 L 128.619 59.7 Q 128.619 58.602 129.24 58.04 L 129.24 58.04 L 129.24 58.04 Q 129.861 57.477 130.95 57.477 L 130.95 57.477 L 130.95 57.477 Q 131.382 57.477 131.683 57.54 L 131.683 57.54 L 131.683 57.54 Q 131.985 57.603 132.273 57.738 L 132.273 57.738 L 132.273 58.467 L 132.273 58.467 Q 131.805 58.233 131.139 58.233 L 131.139 58.233 L 131.139 58.233 Q 130.374 58.233 129.992 58.575 L 129.992 58.575 L 129.992 58.575 Q 129.609 58.917 129.609 59.7 L 129.609 59.7 L 129.609 59.7 Q 129.609 60.474 129.965 60.825 L 129.965 60.825 L 129.965 60.825 Q 130.32 61.176 131.121 61.176 L 131.121 61.176 L 131.121 61.176 Q 131.76 61.176 132.282 60.933 L 132.282 60.933 L 132.282 61.68 L 132.282 61.68 Q 131.688 61.923 130.896 61.923 L 130.896 61.923 Z  M 133.236 61.833 L 133.236 57.567 L 134.136 57.567 L 134.19 58.062 L 134.19 58.062 Q 134.496 57.864 134.919 57.702 L 134.919 57.702 L 134.919 57.702 Q 135.342 57.54 135.756 57.477 L 135.756 57.477 L 135.756 58.224 L 135.756 58.224 Q 135.369 58.296 134.919 58.445 L 134.919 58.445 L 134.919 58.445 Q 134.469 58.593 134.217 58.755 L 134.217 58.755 L 134.217 61.833 L 133.236 61.833 Z  M 137.106 56.676 L 137.106 55.866 L 138.177 55.866 L 138.177 56.676 L 137.106 56.676 Z  M 137.187 61.833 L 137.187 58.314 L 136.539 58.314 L 136.629 57.567 L 138.168 57.567 L 138.168 61.833 L 137.187 61.833 Z  M 139.311 63.777 L 139.311 57.567 L 140.157 57.567 L 140.211 57.99 L 140.211 57.99 Q 140.508 57.729 140.85 57.603 L 140.85 57.603 L 140.85 57.603 Q 141.192 57.477 141.651 57.477 L 141.651 57.477 L 141.651 57.477 Q 142.605 57.477 143.1 57.99 L 143.1 57.99 L 143.1 57.99 Q 143.595 58.503 143.595 59.628 L 143.595 59.628 L 143.595 59.628 Q 143.595 60.762 143.073 61.343 L 143.073 61.343 L 143.073 61.343 Q 142.551 61.923 141.615 61.923 L 141.615 61.923 L 141.615 61.923 Q 140.841 61.923 140.292 61.563 L 140.292 61.563 L 140.292 63.777 L 139.311 63.777 Z  M 141.363 61.185 L 141.363 61.185 Q 141.993 61.185 142.299 60.798 L 142.299 60.798 L 142.299 60.798 Q 142.605 60.411 142.605 59.619 L 142.605 59.619 L 142.605 59.619 Q 142.605 58.863 142.326 58.544 L 142.326 58.544 L 142.326 58.544 Q 142.047 58.224 141.39 58.224 L 141.39 58.224 L 141.39 58.224 Q 140.733 58.224 140.292 58.674 L 140.292 58.674 L 140.292 60.807 L 140.292 60.807 Q 140.724 61.185 141.363 61.185 L 141.363 61.185 Z  M 146.178 61.923 L 146.178 61.923 Q 145.503 61.923 145.161 61.568 L 145.161 61.568 L 145.161 61.568 Q 144.819 61.212 144.819 60.564 L 144.819 60.564 L 144.819 58.332 L 144.189 58.332 L 144.189 57.567 L 144.819 57.567 L 144.819 56.586 L 145.791 56.289 L 145.791 57.567 L 146.925 57.567 L 146.862 58.332 L 145.791 58.332 L 145.791 60.51 L 145.791 60.51 Q 145.791 60.879 145.957 61.028 L 145.957 61.028 L 145.957 61.028 Q 146.124 61.176 146.52 61.176 L 146.52 61.176 L 146.52 61.176 Q 146.763 61.176 147.033 61.086 L 147.033 61.086 L 147.033 61.779 L 147.033 61.779 Q 146.682 61.923 146.178 61.923 L 146.178 61.923 Z  M 59.805 61.833 L 59.805 56.037 L 63.747 56.037 L 63.747 56.802 L 60.786 56.802 L 60.786 58.557 L 63.414 58.557 L 63.414 59.313 L 60.786 59.313 L 60.786 61.833 L 59.805 61.833 Z  M 66.06 61.923 L 66.06 61.923 Q 65.295 61.923 64.885 61.496 L 64.885 61.496 L 64.885 61.496 Q 64.476 61.068 64.476 60.258 L 64.476 60.258 L 64.476 57.567 L 65.457 57.567 L 65.457 60.258 L 65.457 60.258 Q 65.457 60.735 65.691 60.96 L 65.691 60.96 L 65.691 60.96 Q 65.925 61.185 66.411 61.185 L 66.411 61.185 L 66.411 61.185 Q 66.762 61.185 67.068 61.055 L 67.068 61.055 L 67.068 61.055 Q 67.374 60.924 67.608 60.69 L 67.608 60.69 L 67.608 57.567 L 68.58 57.567 L 68.58 61.833 L 67.689 61.833 L 67.644 61.392 L 67.644 61.392 Q 66.969 61.923 66.06 61.923 L 66.06 61.923 Z  M 70.785 61.923 L 70.785 61.923 Q 70.245 61.923 69.984 61.662 L 69.984 61.662 L 69.984 61.662 Q 69.723 61.401 69.723 60.816 L 69.723 60.816 L 69.723 55.767 L 70.704 55.767 L 70.704 60.726 L 70.704 60.726 Q 70.704 60.969 70.789 61.064 L 70.789 61.064 L 70.789 61.064 Q 70.875 61.158 71.064 61.158 L 71.064 61.158 L 71.064 61.158 Q 71.28 61.158 71.478 61.104 L 71.478 61.104 L 71.478 61.815 L 71.478 61.815 Q 71.181 61.923 70.785 61.923 L 70.785 61.923 Z  M 73.305 61.923 L 73.305 61.923 Q 72.765 61.923 72.504 61.662 L 72.504 61.662 L 72.504 61.662 Q 72.243 61.401 72.243 60.816 L 72.243 60.816 L 72.243 55.767 L 73.224 55.767 L 73.224 60.726 L 73.224 60.726 Q 73.224 60.969 73.31 61.064 L 73.31 61.064 L 73.31 61.064 Q 73.395 61.158 73.584 61.158 L 73.584 61.158 L 73.584 61.158 Q 73.8 61.158 73.998 61.104 L 73.998 61.104 L 73.998 61.815 L 73.998 61.815 Q 73.701 61.923 73.305 61.923 L 73.305 61.923 Z  M 74.583 59.79 L 74.583 59.025 L 78.021 59.025 L 78.021 59.79 L 74.583 59.79 Z  M 80.73 61.923 L 80.73 61.923 Q 79.605 61.923 78.921 61.635 L 78.921 61.635 L 78.921 60.771 L 78.921 60.771 Q 79.758 61.095 80.64 61.095 L 80.64 61.095 L 80.64 61.095 Q 81.369 61.095 81.698 60.924 L 81.698 60.924 L 81.698 60.924 Q 82.026 60.753 82.026 60.285 L 82.026 60.285 L 82.026 60.285 Q 82.026 59.988 81.886 59.813 L 81.886 59.813 L 81.886 59.813 Q 81.747 59.637 81.432 59.511 L 81.432 59.511 L 81.432 59.511 Q 81.117 59.385 80.487 59.223 L 80.487 59.223 L 80.487 59.223 Q 79.551 58.98 79.173 58.607 L 79.173 58.607 L 79.173 58.607 Q 78.795 58.233 78.795 57.576 L 78.795 57.576 L 78.795 57.576 Q 78.795 56.802 79.362 56.375 L 79.362 56.375 L 79.362 56.375 Q 79.929 55.947 81.018 55.947 L 81.018 55.947 L 81.018 55.947 Q 81.495 55.947 81.94 56.015 L 81.94 56.015 L 81.94 56.015 Q 82.386 56.082 82.665 56.181 L 82.665 56.181 L 82.665 57.045 L 82.665 57.045 Q 81.981 56.784 81.153 56.784 L 81.153 56.784 L 81.153 56.784 Q 80.469 56.784 80.127 56.964 L 80.127 56.964 L 80.127 56.964 Q 79.785 57.144 79.785 57.576 L 79.785 57.576 L 79.785 57.576 Q 79.785 57.837 79.911 57.995 L 79.911 57.995 L 79.911 57.995 Q 80.037 58.152 80.329 58.274 L 80.329 58.274 L 80.329 58.274 Q 80.622 58.395 81.207 58.539 L 81.207 58.539 L 81.207 58.539 Q 82.224 58.8 82.62 59.214 L 82.62 59.214 L 82.62 59.214 Q 83.016 59.628 83.016 60.285 L 83.016 60.285 L 83.016 60.285 Q 83.016 61.059 82.436 61.491 L 82.436 61.491 L 82.436 61.491 Q 81.855 61.923 80.73 61.923 L 80.73 61.923 Z  M 85.599 61.923 L 85.599 61.923 Q 84.924 61.923 84.582 61.568 L 84.582 61.568 L 84.582 61.568 Q 84.24 61.212 84.24 60.564 L 84.24 60.564 L 84.24 58.332 L 83.61 58.332 L 83.61 57.567 L 84.24 57.567 L 84.24 56.586 L 85.212 56.289 L 85.212 57.567 L 86.346 57.567 L 86.283 58.332 L 85.212 58.332 L 85.212 60.51 L 85.212 60.51 Q 85.212 60.879 85.379 61.028 L 85.379 61.028 L 85.379 61.028 Q 85.545 61.176 85.941 61.176 L 85.941 61.176 L 85.941 61.176 Q 86.184 61.176 86.454 61.086 L 86.454 61.086 L 86.454 61.779 L 86.454 61.779 Q 86.103 61.923 85.599 61.923 L 85.599 61.923 Z  M 88.569 61.923 L 88.569 61.923 Q 87.921 61.923 87.489 61.586 L 87.489 61.586 L 87.489 61.586 Q 87.057 61.248 87.057 60.618 L 87.057 60.618 L 87.057 60.618 Q 87.057 59.988 87.485 59.624 L 87.485 59.624 L 87.485 59.624 Q 87.912 59.259 88.767 59.259 L 88.767 59.259 L 90.135 59.259 L 90.135 59.07 L 90.135 59.07 Q 90.135 58.755 90.041 58.58 L 90.041 58.58 L 90.041 58.58 Q 89.946 58.404 89.694 58.323 L 89.694 58.323 L 89.694 58.323 Q 89.442 58.242 88.974 58.242 L 88.974 58.242 L 88.974 58.242 Q 88.218 58.242 87.561 58.467 L 87.561 58.467 L 87.561 57.738 L 87.561 57.738 Q 87.867 57.621 88.281 57.549 L 88.281 57.549 L 88.281 57.549 Q 88.695 57.477 89.154 57.477 L 89.154 57.477 L 89.154 57.477 Q 90.108 57.477 90.59 57.864 L 90.59 57.864 L 90.59 57.864 Q 91.071 58.251 91.071 59.088 L 91.071 59.088 L 91.071 61.833 L 90.234 61.833 L 90.171 61.401 L 90.171 61.401 Q 89.901 61.662 89.514 61.793 L 89.514 61.793 L 89.514 61.793 Q 89.127 61.923 88.569 61.923 L 88.569 61.923 Z  M 88.83 61.221 L 88.83 61.221 Q 89.253 61.221 89.586 61.077 L 89.586 61.077 L 89.586 61.077 Q 89.919 60.933 90.135 60.672 L 90.135 60.672 L 90.135 59.925 L 88.785 59.925 L 88.785 59.925 Q 88.353 59.925 88.16 60.087 L 88.16 60.087 L 88.16 60.087 Q 87.966 60.249 87.966 60.6 L 87.966 60.6 L 87.966 60.6 Q 87.966 60.924 88.182 61.073 L 88.182 61.073 L 88.182 61.073 Q 88.398 61.221 88.83 61.221 L 88.83 61.221 Z  M 94.257 61.923 L 94.257 61.923 Q 93.132 61.923 92.556 61.356 L 92.556 61.356 L 92.556 61.356 Q 91.98 60.789 91.98 59.7 L 91.98 59.7 L 91.98 59.7 Q 91.98 58.602 92.601 58.04 L 92.601 58.04 L 92.601 58.04 Q 93.222 57.477 94.311 57.477 L 94.311 57.477 L 94.311 57.477 Q 94.743 57.477 95.045 57.54 L 95.045 57.54 L 95.045 57.54 Q 95.346 57.603 95.634 57.738 L 95.634 57.738 L 95.634 58.467 L 95.634 58.467 Q 95.166 58.233 94.5 58.233 L 94.5 58.233 L 94.5 58.233 Q 93.735 58.233 93.353 58.575 L 93.353 58.575 L 93.353 58.575 Q 92.97 58.917 92.97 59.7 L 92.97 59.7 L 92.97 59.7 Q 92.97 60.474 93.326 60.825 L 93.326 60.825 L 93.326 60.825 Q 93.681 61.176 94.482 61.176 L 94.482 61.176 L 94.482 61.176 Q 95.121 61.176 95.643 60.933 L 95.643 60.933 L 95.643 61.68 L 95.643 61.68 Q 95.049 61.923 94.257 61.923 L 94.257 61.923 Z  M 96.597 61.833 L 96.597 55.767 L 97.578 55.767 L 97.578 59.277 L 99.369 57.567 L 100.494 57.567 L 98.757 59.286 L 100.593 61.833 L 99.558 61.833 L 98.145 59.808 L 97.578 60.348 L 97.578 61.833 L 96.597 61.833 Z " fill-rule="evenodd" fill="rgb(116,116,116)"/><path d=" M 128.234 39.889 L 128.234 39.889 Q 128.108 39.889 127.993 39.815 L 127.993 39.815 L 127.993 39.815 Q 127.877 39.742 127.835 39.616 L 127.835 39.616 L 123.803 27.94 L 122.417 39.259 L 122.417 39.259 Q 122.396 39.427 122.281 39.521 L 122.281 39.521 L 122.281 39.521 Q 122.165 39.616 121.997 39.616 L 121.997 39.616 L 121.01 39.616 L 121.01 39.616 Q 120.842 39.616 120.748 39.5 L 120.748 39.5 L 120.748 39.5 Q 120.653 39.385 120.674 39.238 L 120.674 39.238 L 122.501 25.252 L 122.501 25.252 Q 122.522 25.147 122.596 25.084 L 122.596 25.084 L 122.596 25.084 Q 122.669 25.021 122.753 25.021 L 122.753 25.021 L 124.223 25.021 L 124.223 25.021 Q 124.349 25.021 124.475 25.094 L 124.475 25.094 L 124.475 25.094 Q 124.601 25.168 124.622 25.294 L 124.622 25.294 L 128.759 37.285 L 132.938 25.21 L 132.938 25.21 Q 133.001 25.021 133.19 25.021 L 133.19 25.021 L 134.639 25.021 L 134.639 25.021 Q 134.807 25.021 134.923 25.115 L 134.923 25.115 L 134.923 25.115 Q 135.038 25.21 135.059 25.378 L 135.059 25.378 L 136.865 39.238 L 136.865 39.28 L 136.865 39.28 Q 136.865 39.406 136.771 39.511 L 136.771 39.511 L 136.771 39.511 Q 136.676 39.616 136.529 39.616 L 136.529 39.616 L 135.521 39.616 L 135.521 39.616 Q 135.353 39.616 135.238 39.521 L 135.238 39.521 L 135.238 39.521 Q 135.122 39.427 135.101 39.259 L 135.101 39.259 L 133.715 27.982 L 129.683 39.616 L 129.683 39.616 Q 129.641 39.742 129.526 39.815 L 129.526 39.815 L 129.526 39.815 Q 129.41 39.889 129.284 39.889 L 129.284 39.889 L 128.234 39.889 Z  M 144.152 39.616 L 144.152 39.616 Q 142.913 39.616 141.863 39.007 L 141.863 39.007 L 141.863 39.007 Q 140.813 38.398 140.204 37.337 L 140.204 37.337 L 140.204 37.337 Q 139.595 36.277 139.595 35.038 L 139.595 35.038 L 139.595 32.035 L 139.595 32.035 Q 139.595 30.796 140.204 29.735 L 140.204 29.735 L 140.204 29.735 Q 140.813 28.675 141.863 28.066 L 141.863 28.066 L 141.863 28.066 Q 142.913 27.457 144.152 27.457 L 144.152 27.457 L 144.152 27.457 Q 145.391 27.457 146.441 28.066 L 146.441 28.066 L 146.441 28.066 Q 147.491 28.675 148.1 29.735 L 148.1 29.735 L 148.1 29.735 Q 148.709 30.796 148.709 32.035 L 148.709 32.035 L 148.709 33.463 L 148.709 33.463 Q 148.709 33.778 148.489 33.998 L 148.489 33.998 L 148.489 33.998 Q 148.268 34.219 147.953 34.219 L 147.953 34.219 L 141.233 34.219 L 141.233 35.143 L 141.233 35.143 Q 141.233 35.941 141.622 36.613 L 141.622 36.613 L 141.622 36.613 Q 142.01 37.285 142.682 37.673 L 142.682 37.673 L 142.682 37.673 Q 143.354 38.062 144.152 38.062 L 144.152 38.062 L 147.197 38.062 L 147.197 38.062 Q 147.323 38.062 147.407 38.146 L 147.407 38.146 L 147.407 38.146 Q 147.491 38.23 147.491 38.356 L 147.491 38.356 L 147.491 39.322 L 147.491 39.322 Q 147.491 39.448 147.407 39.532 L 147.407 39.532 L 147.407 39.532 Q 147.323 39.616 147.197 39.616 L 147.197 39.616 L 144.152 39.616 Z  M 141.233 32.707 L 147.071 32.707 L 147.071 31.93 L 147.071 31.93 Q 147.071 31.132 146.683 30.46 L 146.683 30.46 L 146.683 30.46 Q 146.294 29.788 145.622 29.399 L 145.622 29.399 L 145.622 29.399 Q 144.95 29.011 144.152 29.011 L 144.152 29.011 L 144.152 29.011 Q 143.354 29.011 142.682 29.399 L 142.682 29.399 L 142.682 29.399 Q 142.01 29.788 141.622 30.46 L 141.622 30.46 L 141.622 30.46 Q 141.233 31.132 141.233 31.93 L 141.233 31.93 L 141.233 32.707 Z  M 155.681 39.616 L 155.681 39.616 Q 154.169 39.616 153.308 38.702 L 153.308 38.702 L 153.308 38.702 Q 152.447 37.789 152.447 36.403 L 152.447 36.403 L 152.447 29.263 L 151.061 29.263 L 151.061 29.263 Q 150.935 29.263 150.851 29.179 L 150.851 29.179 L 150.851 29.179 Q 150.767 29.095 150.767 28.969 L 150.767 28.969 L 150.767 28.024 L 150.767 28.024 Q 150.767 27.898 150.851 27.814 L 150.851 27.814 L 150.851 27.814 Q 150.935 27.73 151.061 27.73 L 151.061 27.73 L 152.447 27.73 L 152.447 25.525 L 152.447 25.525 Q 152.447 25.399 152.531 25.315 L 152.531 25.315 L 152.531 25.315 Q 152.615 25.231 152.741 25.231 L 152.741 25.231 L 153.791 25.231 L 153.791 25.231 Q 153.917 25.231 154.001 25.315 L 154.001 25.315 L 154.001 25.315 Q 154.085 25.399 154.085 25.525 L 154.085 25.525 L 154.085 27.73 L 157.781 27.73 L 157.781 27.73 Q 157.907 27.73 157.991 27.814 L 157.991 27.814 L 157.991 27.814 Q 158.075 27.898 158.075 28.024 L 158.075 28.024 L 158.075 28.99 L 158.075 28.99 Q 158.075 29.116 157.991 29.2 L 157.991 29.2 L 157.991 29.2 Q 157.907 29.284 157.781 29.284 L 157.781 29.284 L 154.085 29.284 L 154.085 36.214 L 154.085 36.214 Q 154.085 37.033 154.579 37.526 L 154.579 37.526 L 154.579 37.526 Q 155.072 38.02 155.87 38.041 L 155.87 38.041 L 157.781 38.062 L 157.781 38.062 Q 157.907 38.062 157.991 38.146 L 157.991 38.146 L 157.991 38.146 Q 158.075 38.23 158.075 38.356 L 158.075 38.356 L 158.075 39.322 L 158.075 39.322 Q 158.075 39.448 157.991 39.532 L 157.991 39.532 L 157.991 39.532 Q 157.907 39.616 157.781 39.616 L 157.781 39.616 L 155.681 39.616 Z  M 161.414 39.616 L 161.414 39.616 Q 161.288 39.616 161.204 39.532 L 161.204 39.532 L 161.204 39.532 Q 161.12 39.448 161.12 39.322 L 161.12 39.322 L 161.12 23.971 L 161.12 23.971 Q 161.12 23.845 161.204 23.761 L 161.204 23.761 L 161.204 23.761 Q 161.288 23.677 161.414 23.677 L 161.414 23.677 L 162.464 23.677 L 162.464 23.677 Q 162.59 23.677 162.674 23.761 L 162.674 23.761 L 162.674 23.761 Q 162.758 23.845 162.758 23.971 L 162.758 23.971 L 162.758 29.2 L 162.758 29.2 Q 163.304 28.339 164.176 27.898 L 164.176 27.898 L 164.176 27.898 Q 165.047 27.457 166.139 27.457 L 166.139 27.457 L 166.139 27.457 Q 167.924 27.457 169.027 28.549 L 169.027 28.549 L 169.027 28.549 Q 170.129 29.641 170.129 31.426 L 170.129 31.426 L 170.129 39.322 L 170.129 39.322 Q 170.129 39.448 170.045 39.532 L 170.045 39.532 L 170.045 39.532 Q 169.961 39.616 169.835 39.616 L 169.835 39.616 L 168.785 39.616 L 168.785 39.616 Q 168.659 39.616 168.575 39.532 L 168.575 39.532 L 168.575 39.532 Q 168.491 39.448 168.491 39.322 L 168.491 39.322 L 168.491 31.741 L 168.491 31.741 Q 168.491 30.397 167.788 29.693 L 167.788 29.693 L 167.788 29.693 Q 167.084 28.99 165.887 28.99 L 165.887 28.99 L 165.887 28.99 Q 164.48 28.99 163.619 29.914 L 163.619 29.914 L 163.619 29.914 Q 162.758 30.838 162.758 32.455 L 162.758 32.455 L 162.758 39.322 L 162.758 39.322 Q 162.758 39.448 162.674 39.532 L 162.674 39.532 L 162.674 39.532 Q 162.59 39.616 162.464 39.616 L 162.464 39.616 L 161.414 39.616 Z  M 177.626 39.616 L 177.626 39.616 Q 176.387 39.616 175.337 39.007 L 175.337 39.007 L 175.337 39.007 Q 174.287 38.398 173.678 37.337 L 173.678 37.337 L 173.678 37.337 Q 173.069 36.277 173.069 35.038 L 173.069 35.038 L 173.069 32.035 L 173.069 32.035 Q 173.069 30.796 173.678 29.735 L 173.678 29.735 L 173.678 29.735 Q 174.287 28.675 175.337 28.066 L 175.337 28.066 L 175.337 28.066 Q 176.387 27.457 177.626 27.457 L 177.626 27.457 L 177.626 27.457 Q 178.865 27.457 179.915 28.066 L 179.915 28.066 L 179.915 28.066 Q 180.965 28.675 181.574 29.735 L 181.574 29.735 L 181.574 29.735 Q 182.183 30.796 182.183 32.035 L 182.183 32.035 L 182.183 33.463 L 182.183 33.463 Q 182.183 33.778 181.963 33.998 L 181.963 33.998 L 181.963 33.998 Q 181.742 34.219 181.427 34.219 L 181.427 34.219 L 174.707 34.219 L 174.707 35.143 L 174.707 35.143 Q 174.707 35.941 175.096 36.613 L 175.096 36.613 L 175.096 36.613 Q 175.484 37.285 176.156 37.673 L 176.156 37.673 L 176.156 37.673 Q 176.828 38.062 177.626 38.062 L 177.626 38.062 L 180.671 38.062 L 180.671 38.062 Q 180.797 38.062 180.881 38.146 L 180.881 38.146 L 180.881 38.146 Q 180.965 38.23 180.965 38.356 L 180.965 38.356 L 180.965 39.322 L 180.965 39.322 Q 180.965 39.448 180.881 39.532 L 180.881 39.532 L 180.881 39.532 Q 180.797 39.616 180.671 39.616 L 180.671 39.616 L 177.626 39.616 Z  M 174.707 32.707 L 180.545 32.707 L 180.545 31.93 L 180.545 31.93 Q 180.545 31.132 180.157 30.46 L 180.157 30.46 L 180.157 30.46 Q 179.768 29.788 179.096 29.399 L 179.096 29.399 L 179.096 29.399 Q 178.424 29.011 177.626 29.011 L 177.626 29.011 L 177.626 29.011 Q 176.828 29.011 176.156 29.399 L 176.156 29.399 L 176.156 29.399 Q 175.484 29.788 175.096 30.46 L 175.096 30.46 L 175.096 30.46 Q 174.707 31.132 174.707 31.93 L 174.707 31.93 L 174.707 32.707 Z  M 185.585 39.595 L 185.585 39.595 Q 185.459 39.595 185.375 39.511 L 185.375 39.511 L 185.375 39.511 Q 185.291 39.427 185.291 39.301 L 185.291 39.301 L 185.291 28.024 L 185.291 28.024 Q 185.291 27.898 185.375 27.814 L 185.375 27.814 L 185.375 27.814 Q 185.459 27.73 185.585 27.73 L 185.585 27.73 L 186.635 27.73 L 186.635 27.73 Q 186.761 27.73 186.845 27.814 L 186.845 27.814 L 186.845 27.814 Q 186.929 27.898 186.929 28.024 L 186.929 28.024 L 186.929 29.179 L 186.929 29.179 Q 187.475 28.318 188.347 27.877 L 188.347 27.877 L 188.347 27.877 Q 189.218 27.436 190.31 27.436 L 190.31 27.436 L 190.31 27.436 Q 192.095 27.436 193.198 28.528 L 193.198 28.528 L 193.198 28.528 Q 194.3 29.62 194.3 31.405 L 194.3 31.405 L 194.3 39.301 L 194.3 39.301 Q 194.3 39.427 194.216 39.511 L 194.216 39.511 L 194.216 39.511 Q 194.132 39.595 194.006 39.595 L 194.006 39.595 L 192.956 39.595 L 192.956 39.595 Q 192.83 39.595 192.746 39.511 L 192.746 39.511 L 192.746 39.511 Q 192.662 39.427 192.662 39.301 L 192.662 39.301 L 192.662 31.72 L 192.662 31.72 Q 192.662 30.376 191.959 29.672 L 191.959 29.672 L 191.959 29.672 Q 191.255 28.969 190.058 28.969 L 190.058 28.969 L 190.058 28.969 Q 188.651 28.969 187.79 29.893 L 187.79 29.893 L 187.79 29.893 Q 186.929 30.817 186.929 32.434 L 186.929 32.434 L 186.929 39.301 L 186.929 39.301 Q 186.929 39.427 186.845 39.511 L 186.845 39.511 L 186.845 39.511 Q 186.761 39.595 186.635 39.595 L 186.635 39.595 L 185.585 39.595 Z  M 199.718 43.669 L 199.718 43.669 Q 199.529 43.669 199.424 43.543 L 199.424 43.543 L 199.424 43.543 Q 199.319 43.417 199.382 43.228 L 199.382 43.228 L 200.6 39.742 L 196.421 28.192 L 196.421 28.192 Q 196.4 28.15 196.4 28.045 L 196.4 28.045 L 196.4 28.045 Q 196.4 27.919 196.495 27.824 L 196.495 27.824 L 196.495 27.824 Q 196.589 27.73 196.736 27.73 L 196.736 27.73 L 197.702 27.73 L 197.702 27.73 Q 197.828 27.73 197.944 27.803 L 197.944 27.803 L 197.944 27.803 Q 198.059 27.877 198.101 28.003 L 198.101 28.003 L 201.398 37.411 L 204.674 28.003 L 204.674 28.003 Q 204.716 27.877 204.832 27.803 L 204.832 27.803 L 204.832 27.803 Q 204.947 27.73 205.073 27.73 L 205.073 27.73 L 205.997 27.73 L 205.997 27.73 Q 206.186 27.73 206.281 27.866 L 206.281 27.866 L 206.281 27.866 Q 206.375 28.003 206.312 28.192 L 206.312 28.192 L 200.936 43.396 L 200.936 43.396 Q 200.894 43.522 200.779 43.595 L 200.779 43.595 L 200.779 43.595 Q 200.663 43.669 200.537 43.669 L 200.537 43.669 L 199.718 43.669 Z  M 50.786 39.868 L 50.786 39.868 Q 49.4 39.868 48.224 39.175 L 48.224 39.175 L 48.224 39.175 Q 47.048 38.482 46.355 37.306 L 46.355 37.306 L 46.355 37.306 Q 45.662 36.13 45.662 34.744 L 45.662 34.744 L 45.662 29.851 L 45.662 29.851 Q 45.662 28.465 46.355 27.289 L 46.355 27.289 L 46.355 27.289 Q 47.048 26.113 48.224 25.42 L 48.224 25.42 L 48.224 25.42 Q 49.4 24.727 50.786 24.727 L 50.786 24.727 L 50.786 24.727 Q 51.941 24.727 52.949 25.126 L 52.949 25.126 L 52.949 25.126 Q 53.957 25.525 54.692 26.26 L 54.692 26.26 L 54.692 26.26 Q 54.797 26.344 54.797 26.512 L 54.797 26.512 L 54.797 26.512 Q 54.797 26.659 54.692 26.785 L 54.692 26.785 L 54.692 26.785 Q 54.545 26.953 54.104 27.394 L 54.104 27.394 L 54.104 27.394 Q 53.957 27.499 53.81 27.499 L 53.81 27.499 L 53.81 27.499 Q 53.642 27.499 53.495 27.352 L 53.495 27.352 L 53.495 27.352 Q 52.424 26.344 50.807 26.344 L 50.807 26.344 L 50.807 26.344 Q 49.883 26.344 49.096 26.827 L 49.096 26.827 L 49.096 26.827 Q 48.308 27.31 47.846 28.118 L 47.846 28.118 L 47.846 28.118 Q 47.384 28.927 47.384 29.851 L 47.384 29.851 L 47.384 34.744 L 47.384 34.744 Q 47.384 35.668 47.846 36.476 L 47.846 36.476 L 47.846 36.476 Q 48.308 37.285 49.096 37.768 L 49.096 37.768 L 49.096 37.768 Q 49.883 38.251 50.807 38.251 L 50.807 38.251 L 50.807 38.251 Q 51.731 38.251 52.508 37.789 L 52.508 37.789 L 52.508 37.789 Q 53.285 37.327 53.747 36.539 L 53.747 36.539 L 53.747 36.539 Q 54.209 35.752 54.209 34.828 L 54.209 34.828 L 54.209 33.169 L 51.248 33.169 L 51.248 33.169 Q 51.122 33.169 51.038 33.085 L 51.038 33.085 L 51.038 33.085 Q 50.954 33.001 50.954 32.875 L 50.954 32.875 L 50.954 31.909 L 50.954 31.909 Q 50.954 31.783 51.038 31.699 L 51.038 31.699 L 51.038 31.699 Q 51.122 31.615 51.248 31.615 L 51.248 31.615 L 55.133 31.615 L 55.133 31.615 Q 55.448 31.615 55.669 31.835 L 55.669 31.835 L 55.669 31.835 Q 55.889 32.056 55.889 32.371 L 55.889 32.371 L 55.889 34.744 L 55.889 34.744 Q 55.889 36.13 55.207 37.306 L 55.207 37.306 L 55.207 37.306 Q 54.524 38.482 53.348 39.175 L 53.348 39.175 L 53.348 39.175 Q 52.172 39.868 50.786 39.868 L 50.786 39.868 Z  M 61.874 39.889 L 61.874 39.889 Q 60.257 39.889 59.228 38.975 L 59.228 38.975 L 59.228 38.975 Q 58.199 38.062 58.199 36.571 L 58.199 36.571 L 58.199 36.571 Q 58.199 35.185 59.134 34.282 L 59.134 34.282 L 59.134 34.282 Q 60.068 33.379 61.748 33.148 L 61.748 33.148 L 64.478 32.77 L 64.478 32.77 Q 65.087 32.686 65.36 32.36 L 65.36 32.36 L 65.36 32.36 Q 65.633 32.035 65.633 31.426 L 65.633 31.426 L 65.633 31.258 L 65.633 31.258 Q 65.633 30.25 64.846 29.63 L 64.846 29.63 L 64.846 29.63 Q 64.058 29.011 62.882 29.011 L 62.882 29.011 L 62.882 29.011 Q 61.958 29.011 61.276 29.378 L 61.276 29.378 L 61.276 29.378 Q 60.593 29.746 60.194 30.397 L 60.194 30.397 L 60.194 30.397 Q 60.026 30.67 59.774 30.67 L 59.774 30.67 L 59.774 30.67 Q 59.648 30.67 59.501 30.565 L 59.501 30.565 L 58.934 30.187 L 58.934 30.187 Q 58.745 30.019 58.745 29.83 L 58.745 29.83 L 58.745 29.83 Q 58.745 29.746 58.808 29.62 L 58.808 29.62 L 58.808 29.62 Q 59.417 28.612 60.478 28.034 L 60.478 28.034 L 60.478 28.034 Q 61.538 27.457 62.924 27.457 L 62.924 27.457 L 62.924 27.457 Q 64.184 27.457 65.171 27.929 L 65.171 27.929 L 65.171 27.929 Q 66.158 28.402 66.694 29.263 L 66.694 29.263 L 66.694 29.263 Q 67.229 30.124 67.229 31.258 L 67.229 31.258 L 67.229 39.322 L 67.229 39.322 Q 67.229 39.448 67.145 39.532 L 67.145 39.532 L 67.145 39.532 Q 67.061 39.616 66.935 39.616 L 66.935 39.616 L 66.053 39.616 L 66.053 39.616 Q 65.927 39.616 65.843 39.532 L 65.843 39.532 L 65.843 39.532 Q 65.759 39.448 65.759 39.322 L 65.759 39.322 L 65.759 37.873 L 65.759 37.873 Q 65.108 38.818 64.09 39.353 L 64.09 39.353 L 64.09 39.353 Q 63.071 39.889 61.874 39.889 L 61.874 39.889 Z  M 62.042 38.419 L 62.042 38.419 Q 63.071 38.419 63.911 37.873 L 63.911 37.873 L 63.911 37.873 Q 64.751 37.327 65.224 36.497 L 65.224 36.497 L 65.224 36.497 Q 65.696 35.668 65.696 34.87 L 65.696 34.87 L 65.696 34.009 L 65.696 34.009 Q 65.192 34.072 62.462 34.45 L 62.462 34.45 L 61.874 34.534 L 61.874 34.534 Q 59.774 34.849 59.774 36.508 L 59.774 36.508 L 59.774 36.508 Q 59.774 37.369 60.404 37.894 L 60.404 37.894 L 60.404 37.894 Q 61.034 38.419 62.042 38.419 L 62.042 38.419 Z  M 75.545 39.889 L 75.545 39.889 Q 74.621 39.889 73.792 39.521 L 73.792 39.521 L 73.792 39.521 Q 72.962 39.154 72.353 38.503 L 72.353 38.503 L 72.353 39.322 L 72.353 39.322 Q 72.353 39.448 72.269 39.532 L 72.269 39.532 L 72.269 39.532 Q 72.185 39.616 72.059 39.616 L 72.059 39.616 L 71.093 39.616 L 71.093 39.616 Q 70.967 39.616 70.883 39.532 L 70.883 39.532 L 70.883 39.532 Q 70.799 39.448 70.799 39.322 L 70.799 39.322 L 70.799 23.971 L 70.799 23.971 Q 70.799 23.845 70.883 23.761 L 70.883 23.761 L 70.883 23.761 Q 70.967 23.677 71.093 23.677 L 71.093 23.677 L 72.143 23.677 L 72.143 23.677 Q 72.269 23.677 72.353 23.761 L 72.353 23.761 L 72.353 23.761 Q 72.437 23.845 72.437 23.971 L 72.437 23.971 L 72.437 28.927 L 72.437 28.927 Q 73.025 28.234 73.834 27.845 L 73.834 27.845 L 73.834 27.845 Q 74.642 27.457 75.545 27.457 L 75.545 27.457 L 75.545 27.457 Q 76.742 27.457 77.75 28.045 L 77.75 28.045 L 77.75 28.045 Q 78.758 28.633 79.346 29.641 L 79.346 29.641 L 79.346 29.641 Q 79.934 30.649 79.934 31.846 L 79.934 31.846 L 79.934 35.5 L 79.934 35.5 Q 79.934 36.697 79.346 37.705 L 79.346 37.705 L 79.346 37.705 Q 78.758 38.713 77.75 39.301 L 77.75 39.301 L 77.75 39.301 Q 76.742 39.889 75.545 39.889 L 75.545 39.889 Z  M 75.377 38.335 L 75.377 38.335 Q 76.175 38.335 76.847 37.946 L 76.847 37.946 L 76.847 37.946 Q 77.519 37.558 77.908 36.886 L 77.908 36.886 L 77.908 36.886 Q 78.296 36.214 78.296 35.416 L 78.296 35.416 L 78.296 31.93 L 78.296 31.93 Q 78.296 31.132 77.908 30.46 L 77.908 30.46 L 77.908 30.46 Q 77.519 29.788 76.847 29.399 L 76.847 29.399 L 76.847 29.399 Q 76.175 29.011 75.377 29.011 L 75.377 29.011 L 75.377 29.011 Q 74.579 29.011 73.897 29.399 L 73.897 29.399 L 73.897 29.399 Q 73.214 29.788 72.826 30.46 L 72.826 30.46 L 72.826 30.46 Q 72.437 31.132 72.437 31.93 L 72.437 31.93 L 72.437 35.416 L 72.437 35.416 Q 72.437 36.214 72.826 36.886 L 72.826 36.886 L 72.826 36.886 Q 73.214 37.558 73.897 37.946 L 73.897 37.946 L 73.897 37.946 Q 74.579 38.335 75.377 38.335 L 75.377 38.335 Z  M 87.935 39.889 L 87.935 39.889 Q 87.011 39.889 86.182 39.521 L 86.182 39.521 L 86.182 39.521 Q 85.352 39.154 84.743 38.503 L 84.743 38.503 L 84.743 39.322 L 84.743 39.322 Q 84.743 39.448 84.659 39.532 L 84.659 39.532 L 84.659 39.532 Q 84.575 39.616 84.449 39.616 L 84.449 39.616 L 83.483 39.616 L 83.483 39.616 Q 83.357 39.616 83.273 39.532 L 83.273 39.532 L 83.273 39.532 Q 83.189 39.448 83.189 39.322 L 83.189 39.322 L 83.189 23.971 L 83.189 23.971 Q 83.189 23.845 83.273 23.761 L 83.273 23.761 L 83.273 23.761 Q 83.357 23.677 83.483 23.677 L 83.483 23.677 L 84.533 23.677 L 84.533 23.677 Q 84.659 23.677 84.743 23.761 L 84.743 23.761 L 84.743 23.761 Q 84.827 23.845 84.827 23.971 L 84.827 23.971 L 84.827 28.927 L 84.827 28.927 Q 85.415 28.234 86.224 27.845 L 86.224 27.845 L 86.224 27.845 Q 87.032 27.457 87.935 27.457 L 87.935 27.457 L 87.935 27.457 Q 89.132 27.457 90.14 28.045 L 90.14 28.045 L 90.14 28.045 Q 91.148 28.633 91.736 29.641 L 91.736 29.641 L 91.736 29.641 Q 92.324 30.649 92.324 31.846 L 92.324 31.846 L 92.324 35.5 L 92.324 35.5 Q 92.324 36.697 91.736 37.705 L 91.736 37.705 L 91.736 37.705 Q 91.148 38.713 90.14 39.301 L 90.14 39.301 L 90.14 39.301 Q 89.132 39.889 87.935 39.889 L 87.935 39.889 Z  M 87.767 38.335 L 87.767 38.335 Q 88.565 38.335 89.237 37.946 L 89.237 37.946 L 89.237 37.946 Q 89.909 37.558 90.298 36.886 L 90.298 36.886 L 90.298 36.886 Q 90.686 36.214 90.686 35.416 L 90.686 35.416 L 90.686 31.93 L 90.686 31.93 Q 90.686 31.132 90.298 30.46 L 90.298 30.46 L 90.298 30.46 Q 89.909 29.788 89.237 29.399 L 89.237 29.399 L 89.237 29.399 Q 88.565 29.011 87.767 29.011 L 87.767 29.011 L 87.767 29.011 Q 86.969 29.011 86.287 29.399 L 86.287 29.399 L 86.287 29.399 Q 85.604 29.788 85.216 30.46 L 85.216 30.46 L 85.216 30.46 Q 84.827 31.132 84.827 31.93 L 84.827 31.93 L 84.827 35.416 L 84.827 35.416 Q 84.827 36.214 85.216 36.886 L 85.216 36.886 L 85.216 36.886 Q 85.604 37.558 86.287 37.946 L 86.287 37.946 L 86.287 37.946 Q 86.969 38.335 87.767 38.335 L 87.767 38.335 Z  M 97.427 26.092 L 97.427 26.092 Q 97.301 26.092 97.217 26.008 L 97.217 26.008 L 97.217 26.008 Q 97.133 25.924 97.133 25.798 L 97.133 25.798 L 97.133 23.971 L 97.133 23.971 Q 97.133 23.845 97.217 23.761 L 97.217 23.761 L 97.217 23.761 Q 97.301 23.677 97.427 23.677 L 97.427 23.677 L 98.435 23.677 L 98.435 23.677 Q 98.561 23.677 98.645 23.761 L 98.645 23.761 L 98.645 23.761 Q 98.729 23.845 98.729 23.971 L 98.729 23.971 L 98.729 25.798 L 98.729 25.798 Q 98.729 25.924 98.645 26.008 L 98.645 26.008 L 98.645 26.008 Q 98.561 26.092 98.435 26.092 L 98.435 26.092 L 97.427 26.092 Z  M 97.868 39.616 L 97.868 39.616 Q 97.553 39.616 97.333 39.395 L 97.333 39.395 L 97.333 39.395 Q 97.112 39.175 97.112 38.86 L 97.112 38.86 L 97.112 29.284 L 94.928 29.284 L 94.928 29.284 Q 94.802 29.284 94.718 29.2 L 94.718 29.2 L 94.718 29.2 Q 94.634 29.116 94.634 28.99 L 94.634 28.99 L 94.634 28.024 L 94.634 28.024 Q 94.634 27.898 94.718 27.814 L 94.718 27.814 L 94.718 27.814 Q 94.802 27.73 94.928 27.73 L 94.928 27.73 L 97.994 27.73 L 97.994 27.73 Q 98.309 27.73 98.53 27.95 L 98.53 27.95 L 98.53 27.95 Q 98.75 28.171 98.75 28.486 L 98.75 28.486 L 98.75 38.062 L 100.913 38.062 L 100.913 38.062 Q 101.039 38.062 101.123 38.146 L 101.123 38.146 L 101.123 38.146 Q 101.207 38.23 101.207 38.356 L 101.207 38.356 L 101.207 39.322 L 101.207 39.322 Q 101.207 39.448 101.123 39.532 L 101.123 39.532 L 101.123 39.532 Q 101.039 39.616 100.913 39.616 L 100.913 39.616 L 97.868 39.616 Z  M 107.864 39.616 L 107.864 39.616 Q 106.625 39.616 105.575 39.007 L 105.575 39.007 L 105.575 39.007 Q 104.525 38.398 103.916 37.337 L 103.916 37.337 L 103.916 37.337 Q 103.307 36.277 103.307 35.038 L 103.307 35.038 L 103.307 32.035 L 103.307 32.035 Q 103.307 30.796 103.916 29.735 L 103.916 29.735 L 103.916 29.735 Q 104.525 28.675 105.575 28.066 L 105.575 28.066 L 105.575 28.066 Q 106.625 27.457 107.864 27.457 L 107.864 27.457 L 107.864 27.457 Q 109.103 27.457 110.153 28.066 L 110.153 28.066 L 110.153 28.066 Q 111.203 28.675 111.812 29.735 L 111.812 29.735 L 111.812 29.735 Q 112.421 30.796 112.421 32.035 L 112.421 32.035 L 112.421 33.463 L 112.421 33.463 Q 112.421 33.778 112.201 33.998 L 112.201 33.998 L 112.201 33.998 Q 111.98 34.219 111.665 34.219 L 111.665 34.219 L 104.945 34.219 L 104.945 35.143 L 104.945 35.143 Q 104.945 35.941 105.334 36.613 L 105.334 36.613 L 105.334 36.613 Q 105.722 37.285 106.394 37.673 L 106.394 37.673 L 106.394 37.673 Q 107.066 38.062 107.864 38.062 L 107.864 38.062 L 110.909 38.062 L 110.909 38.062 Q 111.035 38.062 111.119 38.146 L 111.119 38.146 L 111.119 38.146 Q 111.203 38.23 111.203 38.356 L 111.203 38.356 L 111.203 39.322 L 111.203 39.322 Q 111.203 39.448 111.119 39.532 L 111.119 39.532 L 111.119 39.532 Q 111.035 39.616 110.909 39.616 L 110.909 39.616 L 107.864 39.616 Z  M 104.945 32.707 L 110.783 32.707 L 110.783 31.93 L 110.783 31.93 Q 110.783 31.132 110.395 30.46 L 110.395 30.46 L 110.395 30.46 Q 110.006 29.788 109.334 29.399 L 109.334 29.399 L 109.334 29.399 Q 108.662 29.011 107.864 29.011 L 107.864 29.011 L 107.864 29.011 Q 107.066 29.011 106.394 29.399 L 106.394 29.399 L 106.394 29.399 Q 105.722 29.788 105.334 30.46 L 105.334 30.46 L 105.334 30.46 Q 104.945 31.132 104.945 31.93 L 104.945 31.93 L 104.945 32.707 Z " fill-rule="evenodd" fill="rgb(0,0,0)"/></svg>