<?xml version="1.0" standalone="no"?><!-- Generator: Gravit.io --><svg xmlns="http://www.w3.org/2000/svg" xmlns:xlink="http://www.w3.org/1999/xlink" style="isolation:isolate" viewBox="476.5 100.5 763 417" width="763" height="417"><linearGradient id="_lgradient_2" x1="10.481283422459898%" y1="3.6318407960198975%" x2="71.44385026737967%" y2="121.04477611940301%"><stop offset="0%" stop-opacity="1" style="stop-color:rgb(255,255,255)"/><stop offset="100%" stop-opacity="1" style="stop-color:rgb(0,0,0)"/></linearGradient><path d=" M 484 510 L 484 280 L 554 280 L 554 509 L 554.2 378.6 L 624 378 L 624 509 L 624 237 L 690 198 L 692 508 L 690.2 269.6 L 778 269 L 778 508 L 778 137 L 804 137 L 804 108 L 804 137 L 827 137 L 827 108 L 827 137 L 854 137 L 854 508 L 854 325 L 921 325 L 921 508 L 921 361 L 1012 361 L 1012 509 L 1012 170 L 1100 169 L 1100 508 L 1100 289 L 1132 261 L 1164 288 L 1164 508 L 1164 334 L 1232 333 L 1232 509 L 484 510 Z " fill="url(#_lgradient_2)" vector-effect="non-scaling-stroke" stroke-width="5" stroke="rgb(0,0,0)" stroke-linejoin="miter" stroke-linecap="square" stroke-miterlimit="3"/><line x1="724.2" y1="461.2" x2="724.2" y2="476.2" vector-effect="non-scaling-stroke" stroke-width="3.7" stroke="rgb(0,0,0)" stroke-linejoin="miter" stroke-linecap="square" stroke-miterlimit="3"/><line x1="749.2" y1="461.2" x2="749.2" y2="476.2" vector-effect="non-scaling-stroke" stroke-width="3.7" stroke="rgb(0,0,0)" stroke-linejoin="miter" stroke-linecap="square" stroke-miterlimit="3"/><line x1="1146.2" y1="480.2" x2="1146.2" y2="495.2" vector-effect="non-scaling-stroke" stroke-width="3.7" stroke="rgb(0,0,0)" stroke-linejoin="miter" stroke-linecap="square" stroke-miterlimit="3"/><line x1="1123.2" y1="480.2" x2="1123.2" y2="495.2" vector-effect="non-scaling-stroke" stroke-width="3.7" stroke="rgb(0,0,0)" stroke-linejoin="miter" stroke-linecap="square" stroke-miterlimit="3"/><line x1="1146.2" y1="446.2" x2="1146.2" y2="461.2" vector-effect="non-scaling-stroke" stroke-width="3.7" stroke="rgb(0,0,0)" stroke-linejoin="miter" stroke-linecap="square" stroke-miterlimit="3"/><line x1="1123.2" y1="446.2" x2="1123.2" y2="461.2" vector-effect="non-scaling-stroke" stroke-width="3.7" stroke="rgb(0,0,0)" stroke-linejoin="miter" stroke-linecap="square" stroke-miterlimit="3"/><line x1="1146.2" y1="407.2" x2="1146.2" y2="422.2" vector-effect="non-scaling-stroke" stroke-width="3.7" stroke="rgb(0,0,0)" stroke-linejoin="miter" stroke-linecap="square" stroke-miterlimit="3"/><line x1="1123.2" y1="407.2" x2="1123.2" y2="422.2" vector-effect="non-scaling-stroke" stroke-width="3.7" stroke="rgb(0,0,0)" stroke-linejoin="miter" stroke-linecap="square" stroke-miterlimit="3"/><line x1="897.2" y1="420.2" x2="897.2" y2="435.2" vector-effect="non-scaling-stroke" stroke-width="3.7" stroke="rgb(0,0,0)" stroke-linejoin="miter" stroke-linecap="square" stroke-miterlimit="3"/><line x1="877.2" y1="420.2" x2="877.2" y2="435.2" vector-effect="non-scaling-stroke" stroke-width="3.7" stroke="rgb(0,0,0)" stroke-linejoin="miter" stroke-linecap="square" stroke-miterlimit="3"/><line x1="896.2" y1="364.2" x2="896.2" y2="379.2" vector-effect="non-scaling-stroke" stroke-width="3.7" stroke="rgb(0,0,0)" stroke-linejoin="miter" stroke-linecap="square" stroke-miterlimit="3"/><line x1="877.2" y1="364.2" x2="877.2" y2="379.2" vector-effect="non-scaling-stroke" stroke-width="3.7" stroke="rgb(0,0,0)" stroke-linejoin="miter" stroke-linecap="square" stroke-miterlimit="3"/><line x1="530.2" y1="417.2" x2="530.2" y2="432.2" vector-effect="non-scaling-stroke" stroke-width="3.7" stroke="rgb(0,0,0)" stroke-linejoin="miter" stroke-linecap="square" stroke-miterlimit="3"/><line x1="510.2" y1="417.2" x2="510.2" y2="432.2" vector-effect="non-scaling-stroke" stroke-width="3.7" stroke="rgb(0,0,0)" stroke-linejoin="miter" stroke-linecap="square" stroke-miterlimit="3"/><line x1="529.2" y1="365.2" x2="529.2" y2="380.2" vector-effect="non-scaling-stroke" stroke-width="3.7" stroke="rgb(0,0,0)" stroke-linejoin="miter" stroke-linecap="square" stroke-miterlimit="3"/><line x1="508.2" y1="365.2" x2="508.2" y2="380.2" vector-effect="non-scaling-stroke" stroke-width="3.7" stroke="rgb(0,0,0)" stroke-linejoin="miter" stroke-linecap="square" stroke-miterlimit="3"/><line x1="529.2" y1="308.2" x2="529.2" y2="323.2" vector-effect="non-scaling-stroke" stroke-width="3.7" stroke="rgb(0,0,0)" stroke-linejoin="miter" stroke-linecap="square" stroke-miterlimit="3"/><line x1="509.2" y1="308.2" x2="509.2" y2="323.2" vector-effect="non-scaling-stroke" stroke-width="3.7" stroke="rgb(0,0,0)" stroke-linejoin="miter" stroke-linecap="square" stroke-miterlimit="3"/></svg>