<svg xmlns="http://www.w3.org/2000/svg" viewBox="0 0 758 412"><defs><clipPath id="_clipPath_AUcZR5bESd2fwvIjXEb2RvsbKXD8UQAw"><rect width="758" height="412"/></clipPath></defs><g clip-path="url(#_clipPath_AUcZR5bESd2fwvIjXEb2RvsbKXD8UQAw)"><linearGradient id="_lgradient_0" x1="10.481283422459898%" y1="3.6318407960198975%" x2="71.44385026737967%" y2="121.04477611940301%"><stop offset="0%" stop-opacity="1" style="stop-color:rgb(255,255,255)"/><stop offset="100%" stop-opacity="1" style="stop-color:rgb(0,0,0)"/></linearGradient><path d=" M 4.5 408.5 L 4.5 178.5 L 74.5 178.5 L 74.5 407.5 L 74.7 277.1 L 144.5 276.5 L 144.5 407.5 L 144.5 135.5 L 210.5 96.5 L 212.5 406.5 L 210.7 168.1 L 298.5 167.5 L 298.5 406.5 L 298.5 35.5 L 324.5 35.5 L 324.5 6.5 L 324.5 35.5 L 347.5 35.5 L 347.5 6.5 L 347.5 35.5 L 374.5 35.5 L 374.5 406.5 L 374.5 223.5 L 441.5 223.5 L 441.5 406.5 L 441.5 259.5 L 532.5 259.5 L 532.5 407.5 L 532.5 68.5 L 620.5 67.5 L 620.5 406.5 L 620.5 187.5 L 652.5 159.5 L 684.5 186.5 L 684.5 406.5 L 684.5 232.5 L 752.5 231.5 L 752.5 407.5 L 4.5 408.5 Z " fill="url(#_lgradient_0)" vector-effect="non-scaling-stroke" stroke-width="5" stroke="rgb(0,0,0)" stroke-linejoin="miter" stroke-linecap="square" stroke-miterlimit="3"/><line x1="247.697" y1="360.7" x2="247.7" y2="375.7" vector-effect="non-scaling-stroke" stroke-width="3.66" stroke="rgb(0,0,0)" stroke-linejoin="miter" stroke-linecap="square" stroke-miterlimit="3"/><line x1="272.697" y1="360.7" x2="272.7" y2="375.7" vector-effect="non-scaling-stroke" stroke-width="3.66" stroke="rgb(0,0,0)" stroke-linejoin="miter" stroke-linecap="square" stroke-miterlimit="3"/><line x1="669.697" y1="379.7" x2="669.7" y2="394.7" vector-effect="non-scaling-stroke" stroke-width="3.66" stroke="rgb(0,0,0)" stroke-linejoin="miter" stroke-linecap="square" stroke-miterlimit="3"/><line x1="646.697" y1="379.7" x2="646.7" y2="394.7" vector-effect="non-scaling-stroke" stroke-width="3.66" stroke="rgb(0,0,0)" stroke-linejoin="miter" stroke-linecap="square" stroke-miterlimit="3"/><line x1="669.697" y1="345.7" x2="669.7" y2="360.7" vector-effect="non-scaling-stroke" stroke-width="3.66" stroke="rgb(0,0,0)" stroke-linejoin="miter" stroke-linecap="square" stroke-miterlimit="3"/><line x1="646.697" y1="345.7" x2="646.7" y2="360.7" vector-effect="non-scaling-stroke" stroke-width="3.66" stroke="rgb(0,0,0)" stroke-linejoin="miter" stroke-linecap="square" stroke-miterlimit="3"/><line x1="669.697" y1="306.7" x2="669.7" y2="321.7" vector-effect="non-scaling-stroke" stroke-width="3.66" stroke="rgb(0,0,0)" stroke-linejoin="miter" stroke-linecap="square" stroke-miterlimit="3"/><line x1="646.697" y1="306.7" x2="646.7" y2="321.7" vector-effect="non-scaling-stroke" stroke-width="3.66" stroke="rgb(0,0,0)" stroke-linejoin="miter" stroke-linecap="square" stroke-miterlimit="3"/><line x1="420.697" y1="319.7" x2="420.7" y2="334.7" vector-effect="non-scaling-stroke" stroke-width="3.66" stroke="rgb(0,0,0)" stroke-linejoin="miter" stroke-linecap="square" stroke-miterlimit="3"/><line x1="400.697" y1="319.7" x2="400.7" y2="334.7" vector-effect="non-scaling-stroke" stroke-width="3.66" stroke="rgb(0,0,0)" stroke-linejoin="miter" stroke-linecap="square" stroke-miterlimit="3"/><line x1="419.697" y1="263.7" x2="419.7" y2="278.7" vector-effect="non-scaling-stroke" stroke-width="3.66" stroke="rgb(0,0,0)" stroke-linejoin="miter" stroke-linecap="square" stroke-miterlimit="3"/><line x1="400.697" y1="263.7" x2="400.7" y2="278.7" vector-effect="non-scaling-stroke" stroke-width="3.66" stroke="rgb(0,0,0)" stroke-linejoin="miter" stroke-linecap="square" stroke-miterlimit="3"/><line x1="53.697" y1="316.7" x2="53.7" y2="331.7" vector-effect="non-scaling-stroke" stroke-width="3.66" stroke="rgb(0,0,0)" stroke-linejoin="miter" stroke-linecap="square" stroke-miterlimit="3"/><line x1="33.697" y1="316.7" x2="33.7" y2="331.7" vector-effect="non-scaling-stroke" stroke-width="3.66" stroke="rgb(0,0,0)" stroke-linejoin="miter" stroke-linecap="square" stroke-miterlimit="3"/><line x1="52.697" y1="264.7" x2="52.7" y2="279.7" vector-effect="non-scaling-stroke" stroke-width="3.66" stroke="rgb(0,0,0)" stroke-linejoin="miter" stroke-linecap="square" stroke-miterlimit="3"/><line x1="31.697" y1="264.7" x2="31.7" y2="279.7" vector-effect="non-scaling-stroke" stroke-width="3.66" stroke="rgb(0,0,0)" stroke-linejoin="miter" stroke-linecap="square" stroke-miterlimit="3"/><line x1="52.697" y1="207.7" x2="52.7" y2="222.7" vector-effect="non-scaling-stroke" stroke-width="3.66" stroke="rgb(0,0,0)" stroke-linejoin="miter" stroke-linecap="square" stroke-miterlimit="3"/><line x1="32.697" y1="207.7" x2="32.7" y2="222.7" vector-effect="non-scaling-stroke" stroke-width="3.66" stroke="rgb(0,0,0)" stroke-linejoin="miter" stroke-linecap="square" stroke-miterlimit="3"/></g></svg>