<?xml version="1.0" standalone="no"?><!-- Generator: Gravit.io --><svg xmlns="http://www.w3.org/2000/svg" xmlns:xlink="http://www.w3.org/1999/xlink" style="isolation:isolate" viewBox="0 0 31.995 32" width="31.995" height="32"><defs><clipPath id="_clipPath_LBId5EkNHpR5hSzhjxiMOUEYi8BZdP9g"><rect width="31.995" height="32"/></clipPath></defs><g clip-path="url(#_clipPath_LBId5EkNHpR5hSzhjxiMOUEYi8BZdP9g)"><path d=" M 31.995 16.32 L 31.995 16.32 L 31.995 16.32 Q 31.147 16.384 30.481 16.656 L 30.481 16.656 L 30.481 16.656 Q 29.815 16.928 29.351 17.52 L 29.351 17.52 L 29.351 17.52 Q 28.887 18.112 28.625 19.104 L 28.625 19.104 L 28.625 19.104 Q 28.363 20.096 28.363 21.6 L 28.363 21.6 L 28.363 26.24 L 28.363 26.24 Q 28.363 29.152 26.688 30.576 L 26.688 30.576 L 26.688 30.576 Q 25.013 32 22.108 32 L 22.108 32 L 22.108 31.36 L 22.108 31.36 Q 22.713 31.36 23.197 31.168 L 23.197 31.168 L 23.197 31.168 Q 23.682 30.976 24.025 30.416 L 24.025 30.416 L 24.025 30.416 Q 24.368 29.856 24.549 28.864 L 24.549 28.864 L 24.549 28.864 Q 24.731 27.872 24.731 26.24 L 24.731 26.24 L 24.731 21.6 L 24.731 21.6 Q 24.731 19.648 25.538 18.512 L 25.538 18.512 L 25.538 18.512 Q 26.345 17.376 27.354 16.832 L 27.354 16.832 L 27.354 16.832 Q 28.484 16.192 29.977 16 L 29.977 16 L 29.977 16 Q 28.484 15.808 27.354 15.168 L 27.354 15.168 L 27.354 15.168 Q 26.345 14.624 25.538 13.504 L 25.538 13.504 L 25.538 13.504 Q 24.731 12.384 24.731 10.4 L 24.731 10.4 L 24.731 5.76 L 24.731 5.76 Q 24.731 4.128 24.549 3.136 L 24.549 3.136 L 24.549 3.136 Q 24.368 2.144 24.025 1.584 L 24.025 1.584 L 24.025 1.584 Q 23.682 1.024 23.197 0.832 L 23.197 0.832 L 23.197 0.832 Q 22.713 0.64 22.108 0.64 L 22.108 0.64 L 22.108 0 L 22.108 0 Q 25.013 0 26.688 1.424 L 26.688 1.424 L 26.688 1.424 Q 28.363 2.848 28.363 5.76 L 28.363 5.76 L 28.363 10.4 L 28.363 10.4 Q 28.363 11.904 28.625 12.896 L 28.625 12.896 L 28.625 12.896 Q 28.887 13.888 29.351 14.48 L 29.351 14.48 L 29.351 14.48 Q 29.815 15.072 30.481 15.344 L 30.481 15.344 L 30.481 15.344 Q 31.147 15.616 31.995 15.68 L 31.995 15.68 L 31.995 16.32 Z " fill="rgb(249,78,109)"/><path d=" M 0 16.32 L 0 15.68 L 0 15.68 Q 0.847 15.616 1.513 15.344 L 1.513 15.344 L 1.513 15.344 Q 2.179 15.072 2.643 14.48 L 2.643 14.48 L 2.643 14.48 Q 3.107 13.888 3.37 12.896 L 3.37 12.896 L 3.37 12.896 Q 3.632 11.904 3.632 10.4 L 3.632 10.4 L 3.632 5.76 L 3.632 5.76 Q 3.632 2.848 5.307 1.424 L 5.307 1.424 L 5.307 1.424 Q 6.981 0 9.887 0 L 9.887 0 L 9.887 0.64 L 9.887 0.64 Q 9.281 0.64 8.797 0.832 L 8.797 0.832 L 8.797 0.832 Q 8.313 1.024 7.97 1.584 L 7.97 1.584 L 7.97 1.584 Q 7.627 2.144 7.445 3.136 L 7.445 3.136 L 7.445 3.136 Q 7.264 4.128 7.264 5.76 L 7.264 5.76 L 7.264 10.4 L 7.264 10.4 Q 7.264 12.384 6.436 13.504 L 6.436 13.504 L 6.436 13.504 Q 5.609 14.624 4.641 15.168 L 4.641 15.168 L 4.641 15.168 Q 3.47 15.808 2.018 16 L 2.018 16 L 2.018 16 Q 3.47 16.192 4.641 16.832 L 4.641 16.832 L 4.641 16.832 Q 5.609 17.376 6.436 18.512 L 6.436 18.512 L 6.436 18.512 Q 7.264 19.648 7.264 21.6 L 7.264 21.6 L 7.264 26.24 L 7.264 26.24 Q 7.264 27.872 7.445 28.864 L 7.445 28.864 L 7.445 28.864 Q 7.627 29.856 7.97 30.416 L 7.97 30.416 L 7.97 30.416 Q 8.313 30.976 8.797 31.168 L 8.797 31.168 L 8.797 31.168 Q 9.281 31.36 9.887 31.36 L 9.887 31.36 L 9.887 32 L 9.887 32 Q 6.981 32 5.307 30.576 L 5.307 30.576 L 5.307 30.576 Q 3.632 29.152 3.632 26.24 L 3.632 26.24 L 3.632 21.6 L 3.632 21.6 Q 3.632 20.096 3.37 19.104 L 3.37 19.104 L 3.37 19.104 Q 3.107 18.112 2.643 17.52 L 2.643 17.52 L 2.643 17.52 Q 2.179 16.928 1.513 16.656 L 1.513 16.656 L 1.513 16.656 Q 0.847 16.384 0 16.32 L 0 16.32 Z " fill="rgb(249,78,109)"/></g></svg>